<svg id="My_Illustration_Circular" data-name="My Illustration Circular" xmlns="http://www.w3.org/2000/svg" width="484" height="484" viewBox="0 0 484 484">
  <defs>
    <style>
      .cls-1 {
        fill: #212121;
        stroke: #ededed;
        stroke-linejoin: round;
        stroke-width: 6px;
      }

      .cls-2 {
        fill: #323232;
      }

      .cls-2, .cls-3, .cls-4, .cls-5 {
        fill-rule: evenodd;
      }

      .cls-3 {
        fill: #14ffec;
      }

      .cls-4 {
        fill: #c7acba;
      }

      .cls-5 {
        fill: #f6dae8;
      }
    </style>
  </defs>
  <circle class="cls-1" cx="242" cy="242" r="237"/>
  <path id="innerwear" class="cls-2" d="M734,708a236.051,236.051,0,0,1-102.872-23.432c0.1-2.686.066-5.484-.128-8.568a225.219,225.219,0,0,1,1-48s5.172-.164,5-6c2.1-7.712,3.123-26.259,4-31,0.285-5.729,8.875-25.577,10-30,2.705-2.448,6-14,6-14a20.891,20.891,0,0,1-2-8c0.109-12.87,13-18,13-18l2,10s-0.317-.329,11,12,33.764,19.465,41,20c39.548,11.22,69-27,69-27l7-17s4.84-8.656,4-6,3,9,3,9a19.992,19.992,0,0,1,5,8,13.7,13.7,0,0,1-4,14s-0.033,3.089,0,4c4.462,2.214,12.9,12.982,23,24s12.041,13.432,13,23,13.327,49.238,12,63c-0.5,5.135.369,11.125,1.582,16.464A235.885,235.885,0,0,1,734,708Z" transform="translate(-492 -229)"/>
  <path id="Hoodie" class="cls-3" d="M538.341,604.756A81.135,81.135,0,0,1,549,597a79.578,79.578,0,0,0-4-12c-2.429-5.425-.831-12.684,0-15s16.194-1.3,20,1,17.022,1.86,27,3c10.7,4.943,9.259,8.1,12,9s5.743-2.988,8-5c8.416-8.869,15-5,15-5s1.8,2.479,3,1c12.819-13.915,24-15,24-15-2.953,3.164-5,14-5,14s-1.3,13.7-4,21-5.524,49.865-4,56,1,36,1,36l-0.39,3.315A237.864,237.864,0,0,1,538.341,604.756ZM851.6,676.806L852,672V650l-8-27s-3.135-25.583-6-32-7.1-14.286-13-19-9-16-9-16c3.987-.153,9.529-0.756,13,1s28,17,28,17,12.39,0.72,14,1c5.137,5.647,10,3,10,3s6.026-1.44,9,0,5,7,5,7a160.916,160.916,0,0,1,14,17,59.887,59.887,0,0,0,13.2,13.039A238.143,238.143,0,0,1,851.6,676.806Z" transform="translate(-492 -229)"/>
  <path id="Neck" class="cls-4" d="M667,517s-1.788,12.036,2,18,23.534,29.507,60,35c8.363,0.859,37.53-1.476,58-24,3.579-4.587,12.648-16.6,12-23s-3-4-3-4Z" transform="translate(-492 -229)"/>
  <path id="Ear_Left" data-name="Ear Left" class="cls-5" d="M637,418s-6.753-8.521-10-2-1,15-1,15l9,37s5.907,11.844,17,7c1.873-5.305,0-36,0-36Z" transform="translate(-492 -229)"/>
  <path id="Ear_Right" data-name="Ear Right" class="cls-5" d="M830,418s6.753-8.521,10-2,1,15,1,15l-9,37s-5.907,11.844-17,7c-1.873-5.305,0-36,0-36Z" transform="translate(-492 -229)"/>
  <path id="Face" class="cls-5" d="M648,437s2.944,38.5,4,46,4.728,27.161,17,37,32,24,32,24,16,10,33,10,28-6,28-6l30-21s15.515-11.4,19-23,3.937-15.138,5-27,2-34,2-34l4-20,1-52-68-17-42-9-38-17-31,33-2,47Z" transform="translate(-492 -229)"/>
  <path id="Hair" class="cls-2" d="M634,415l-4-2s3.239-2.019,1-6-3.227-4.774-3-14c-1.555-1.563-.8-4.894-1-10s-1.009-13.61,1-18c1.652-2.965,2.783-4.62,0-7-0.728-1.19-5-3-5-3s7.891-.887,5-3a39.484,39.484,0,0,1-6-6s2.19-1.282,2-6a8.652,8.652,0,0,1,4,0l-5-8s6.915,2.4,7-5c0.085-4.051-2-9-2-9l8-10s-1.119,15.11,2,12,5.367-5.695,5-9c1.9-1.574,14-14,14-14s12.937-4.62,18-12c3.981-4.784,8.758-9.477,20-14a20.747,20.747,0,0,0,7-2s8.507-3.69,12-5,16.056-1.342,24,1c4.374,1.8,9.455,3.658,14,3,4,0.748,10,2,10,2s13.664,2.1,18,7c0.951,2.312,5.13,6.5,12,6,4.58,2.185,13,11,13,11s7.008-.642,9,0,2.361,6.2,8,8a42.717,42.717,0,0,0,8,2l1,6,13,8,2,5s3.185,2.992,6,2,4,0,4,0-3.729-1.18-4,2-2.571-.981-6,1-3,4-3,4l2,5-5,8s1.7,5.487-1,15a83.3,83.3,0,0,0,0,14s-4.119,8.034-3,13,1,5,1,5c0.119-1.21-.592,14.994-2,20-0.118,2.433-2.073,4.3-3,8-0.6,2.4-6,4-6,4s-6.781,18.191-8,19-0.548-41.558-3-49c1.075-3.445,4.69-8.564,3-12s-11.386-1.39-18-4,0,5,0,5-25.469-6.4-34-10a129.181,129.181,0,0,1-11-9,31.243,31.243,0,0,0,7,13c-6.245-.359-28.237.544-40-12s-32.338-32.7-43-27-21.913,9.935-30,32c-1.8,7.021,1,14,1,14l-2,56s-2.532-4.534-7-11-5.628-8.773-6-10S634,415,634,415Z" transform="translate(-492 -229)"/>
</svg>
